<?xml version="1.0" standalone="no"?><!DOCTYPE svg PUBLIC "-//W3C//DTD SVG 1.1//EN" "http://www.w3.org/Graphics/SVG/1.1/DTD/svg11.dtd"><svg t="1534691007027" class="icon" style="" viewBox="0 0 1024 1024" version="1.1" xmlns="http://www.w3.org/2000/svg" p-id="10545" xmlns:xlink="http://www.w3.org/1999/xlink" width="32" height="32"><defs><style type="text/css"></style></defs><path d="M128 768h768v64H128z" p-id="10546" fill="#ffffff"></path><path d="M352 672m-32 0a32 32 0 1 0 64 0 32 32 0 1 0-64 0Z" p-id="10547" fill="#ffffff"></path><path d="M480 448m-32 0a32 32 0 1 0 64 0 32 32 0 1 0-64 0Z" p-id="10548" fill="#ffffff"></path><path d="M224 544m-32 0a32 32 0 1 0 64 0 32 32 0 1 0-64 0Z" p-id="10549" fill="#ffffff"></path><path d="M544 608m-32 0a32 32 0 1 0 64 0 32 32 0 1 0-64 0Z" p-id="10550" fill="#ffffff"></path><path d="M864 416m-32 0a32 32 0 1 0 64 0 32 32 0 1 0-64 0Z" p-id="10551" fill="#ffffff"></path><path d="M608 352m-32 0a32 32 0 1 0 64 0 32 32 0 1 0-64 0Z" p-id="10552" fill="#ffffff"></path><path d="M144 240m-16 0a16 16 0 1 0 32 0 16 16 0 1 0-32 0Z" p-id="10553" fill="#ffffff"></path><path d="M704 512m-64 0a64 64 0 1 0 128 0 64 64 0 1 0-128 0Z" p-id="10554" fill="#ffffff"></path><path d="M320 384m-64 0a64 64 0 1 0 128 0 64 64 0 1 0-128 0Z" p-id="10555" fill="#ffffff"></path><path d="M736 672m-32 0a32 32 0 1 0 64 0 32 32 0 1 0-64 0Z" p-id="10556" fill="#ffffff"></path><path d="M416 224m-32 0a32 32 0 1 0 64 0 32 32 0 1 0-64 0Z" p-id="10557" fill="#ffffff"></path><path d="M752 208m-16 0a16 16 0 1 0 32 0 16 16 0 1 0-32 0Z" p-id="10558" fill="#ffffff"></path><path d="M560 272m-16 0a16 16 0 1 0 32 0 16 16 0 1 0-32 0Z" p-id="10559" fill="#ffffff"></path><path d="M496 688m-16 0a16 16 0 1 0 32 0 16 16 0 1 0-32 0Z" p-id="10560" fill="#ffffff"></path><path d="M400 528m-16 0a16 16 0 1 0 32 0 16 16 0 1 0-32 0Z" p-id="10561" fill="#ffffff"></path><path d="M272 464m-16 0a16 16 0 1 0 32 0 16 16 0 1 0-32 0Z" p-id="10562" fill="#ffffff"></path><path d="M208 656m-16 0a16 16 0 1 0 32 0 16 16 0 1 0-32 0Z" p-id="10563" fill="#ffffff"></path><path d="M272 272m-16 0a16 16 0 1 0 32 0 16 16 0 1 0-32 0Z" p-id="10564" fill="#ffffff"></path><path d="M496 368m-16 0a16 16 0 1 0 32 0 16 16 0 1 0-32 0Z" p-id="10565" fill="#ffffff"></path><path d="M784 592m-16 0a16 16 0 1 0 32 0 16 16 0 1 0-32 0Z" p-id="10566" fill="#ffffff"></path><path d="M848 560m-16 0a16 16 0 1 0 32 0 16 16 0 1 0-32 0Z" p-id="10567" fill="#ffffff"></path><path d="M720 400m-16 0a16 16 0 1 0 32 0 16 16 0 1 0-32 0Z" p-id="10568" fill="#ffffff"></path><path d="M784 304m-16 0a16 16 0 1 0 32 0 16 16 0 1 0-32 0Z" p-id="10569" fill="#ffffff"></path><path d="M176 400m-16 0a16 16 0 1 0 32 0 16 16 0 1 0-32 0Z" p-id="10570" fill="#ffffff"></path><path d="M688 304m-16 0a16 16 0 1 0 32 0 16 16 0 1 0-32 0Z" p-id="10571" fill="#ffffff"></path><path d="M432 304m-16 0a16 16 0 1 0 32 0 16 16 0 1 0-32 0Z" p-id="10572" fill="#ffffff"></path><path d="M592 496m-16 0a16 16 0 1 0 32 0 16 16 0 1 0-32 0Z" p-id="10573" fill="#ffffff"></path><path d="M624 656m-16 0a16 16 0 1 0 32 0 16 16 0 1 0-32 0Z" p-id="10574" fill="#ffffff"></path><path d="M464 592m-16 0a16 16 0 1 0 32 0 16 16 0 1 0-32 0Z" p-id="10575" fill="#ffffff"></path><path d="M304 592m-16 0a16 16 0 1 0 32 0 16 16 0 1 0-32 0Z" p-id="10576" fill="#ffffff"></path></svg>