<?xml version="1.0" standalone="no"?><!DOCTYPE svg PUBLIC "-//W3C//DTD SVG 1.1//EN" "http://www.w3.org/Graphics/SVG/1.1/DTD/svg11.dtd"><svg t="1534690969660" class="icon" style="" viewBox="0 0 1024 1024" version="1.1" xmlns="http://www.w3.org/2000/svg" p-id="9216" xmlns:xlink="http://www.w3.org/1999/xlink" width="32" height="32"><defs><style type="text/css"></style></defs><path d="M234.992547 376.803855c-43.10268 2.915399-53.870932-20.815071-52.54268-54.619992-11.374048-3.622504-21.796422-6.077416-31.524994-10.235109-22.373567-9.613962-19.631106-21.160949-3.984754-36.72032 19.572778-19.458167 34.55705-44.069705 55.862285-61.029982 16.427134-13.06455 39.176254-22.273283 59.789735-23.601534 6.754844-0.432859 15.473413 29.143761 26.673499 51.820226 38.685068 8.372691 69.632917 42.424228 96.713692 81.253582 8.601912 12.369725 16.628726 25.188682 24.336268 38.135552 41.631166 69.979818 70.817905 83.736123 151.73789 69.821205 68.967768-11.866259 135.859247-29.259394 194.089463-71.309092 15.298428-11.070126 33.487695-19.066241 51.414997-25.51921 39.08825-14.045901 73.759911-2.597151 84.470857 25.924439 11.231809 29.894867-1.326205 47.620577-42.35055 64.971757 13.799284 14.750959 40.993646 31.120788 40.648792 46.882773-0.403183 17.638729-25.752524 34.745339-42.208311 54.490032 23.788799 37.445844 17.786085 50.927903-36.086893 55.17053 5.600555 30.716582-5.888104 47.793516-41.514509 39.392172 1.387603 86.594217-38.337143 137.63366-118.824269 157.64339-10.56666 2.62478-20.180622 12.022825-28.55229 20.046568-27.28032 26.200732-51.993165 46.623877-96.625688 29.521361-25.722848-9.887184-59.614749 2.829442-89.841168 2.970658-39.521109 0.203638-79.101569-1.065262-118.508068-3.694135-9.960863-0.663102-24.047696-6.348592-28.262694-14.087856-19.516496-35.56603-55.371098-44.878117-87.705528-61.547775-78.264505-40.36022-99.483782-169.017438-42.986023-249.77881 23.353894-33.416064 46.99943-66.644863 69.805856-100.437503C232.50796 397.099087 232.221434 389.377218 234.992547 376.803855L234.992547 376.803855z" p-id="9217" fill="#ffffff"></path></svg>