<?xml version="1.0" standalone="no"?><!DOCTYPE svg PUBLIC "-//W3C//DTD SVG 1.1//EN" "http://www.w3.org/Graphics/SVG/1.1/DTD/svg11.dtd"><svg t="1534689883841" class="icon" style="" viewBox="0 0 1024 1024" version="1.1" xmlns="http://www.w3.org/2000/svg" p-id="7590" xmlns:xlink="http://www.w3.org/1999/xlink" width="32" height="32"><defs><style type="text/css"></style></defs><path d="M511.988473 0.182953c-0.171519-0.182953-0.171519 0 0 0z" p-id="7591" fill="#ffffff"></path><path d="M511.988473 0.182953L511.794085 7.375297V0C503.17242 8.461581 112.727611 396.505131 126.815 640.941923c0.720378 211.653881 172.661999 383.058077 384.453095 383.058077h1.440756c211.848269 0 383.732717-171.347024 384.453095-383.058077C910.86056 396.871037 520.450055 8.827488 511.988473 0.182953zM838.662688 640.221545c-0.52599 179.79717-146.362489 325.222025-326.125356 325.222025h-1.45219C331.287972 965.44357 185.497211 819.858631 185.131305 640.221545h-0.171519C172.358891 429.093654 511.451048 75.94841 511.451048 75.94841l0.182953 0.182954v0.365906l0.182954-0.182953 0.171518 0.182953v-0.365906l0.182953-0.182954S852.70434 427.824417 838.662688 640.221545z" p-id="7592" fill="#ffffff"></path><path d="M216.782193 637.511552c0 163.60582 132.641006 296.075307 296.155349 296.075307 137.512132 0 252.155126-104.054582 285.464027-231.092649-68.207207-52.19881-239.794356-38.523065-239.794356-38.523064-138.358291 0-252.875504-64.433799-326.319744-123.493351A309.510926 309.510926 0 0 0 216.782193 637.511552z" p-id="7593" fill="#ffffff"></path></svg>