<?xml version="1.0" standalone="no"?><!DOCTYPE svg PUBLIC "-//W3C//DTD SVG 1.1//EN" "http://www.w3.org/Graphics/SVG/1.1/DTD/svg11.dtd"><svg t="1533187895600" class="icon" style="" viewBox="0 0 1024 1024" version="1.1" xmlns="http://www.w3.org/2000/svg" p-id="1272" xmlns:xlink="http://www.w3.org/1999/xlink" width="32" height="32"><defs><style type="text/css"></style></defs><path d="M751.632 473.479 569.531 860.691c-10.506 22.012-33.518 35.52-57.531 35.52-24.013 0-47.026-13.508-57.031-35.52l-182.6-387.212c-13.007-27.515-16.509-59.033-16.509-89.549 0-141.578 114.563-256.141 256.141-256.141 141.578 0 256.141 114.563 256.141 256.141C768.141 414.446 764.639 445.964 751.632 473.479zM512 255.859c-70.539 0-128.07 57.532-128.07 128.07S441.461 512 512 512c70.539 0 128.07-57.532 128.07-128.07S582.539 255.859 512 255.859z" p-id="1273" fill="#1296db"></path></svg>