<?xml version="1.0" standalone="no"?><!DOCTYPE svg PUBLIC "-//W3C//DTD SVG 1.1//EN" "http://www.w3.org/Graphics/SVG/1.1/DTD/svg11.dtd"><svg t="1534130935785" class="icon" style="" viewBox="0 0 1024 1024" version="1.1" xmlns="http://www.w3.org/2000/svg" p-id="1634" xmlns:xlink="http://www.w3.org/1999/xlink" width="32" height="32"><defs><style type="text/css"></style></defs><path d="M510.549463 62.365396c-194.151885 0-352.127849 157.975964-352.127849 352.127849 0 187.42467 315.536466 520.214079 328.948941 534.26612 6.046716 6.370081 14.433734 9.925047 23.179932 9.925047l0.701988 0c8.992815 0 17.477047-4.195555 23.396873-10.9504l109.258403-125.162628C789.074991 644.750443 862.669126 507.449357 862.669126 414.492222 862.669126 220.341361 704.694185 62.365396 510.549463 62.365396L510.549463 62.365396zM510.549463 574.550615c-88.415702 0-160.057369-71.64269-160.057369-160.058392s71.641667-160.057369 160.057369-160.057369c88.413656 0 160.055322 71.641667 160.055322 160.057369S598.963119 574.550615 510.549463 574.550615L510.549463 574.550615zM510.549463 574.550615" p-id="1635" fill="#ffffff"></path></svg>