<?xml version="1.0" standalone="no"?><!DOCTYPE svg PUBLIC "-//W3C//DTD SVG 1.1//EN" "http://www.w3.org/Graphics/SVG/1.1/DTD/svg11.dtd"><svg t="1534689743663" class="icon" style="" viewBox="0 0 1024 1024" version="1.1" xmlns="http://www.w3.org/2000/svg" p-id="1829" xmlns:xlink="http://www.w3.org/1999/xlink" width="32" height="32"><defs><style type="text/css"></style></defs><path d="M243.602645 606.825692l84.706217 0c-5.175883-17.386996-7.968485-35.803437-7.968485-54.870702 0-105.984846 85.913718-191.914938 191.878099-191.914938 105.9828 0 191.877075 85.931115 191.877075 191.914938 0 19.067264-2.792603 37.483706-7.965415 54.870702l84.72259 0c3.598968-17.730826 5.492084-36.078707 5.492084-54.870702 0-151.404292-122.741485-274.201036-274.126334-274.201036s-274.107915 122.796744-274.107915 274.201036C238.111584 570.746986 240.003678 589.094866 243.602645 606.825692zM553.344129 225.474264 553.344129 113.25339c0-22.729677-18.412348-41.143049-41.12463-41.143049-22.709211 0-41.10621 18.413372-41.10621 41.143049l0 112.218828c13.467733-1.679245 27.185152-2.553149 41.10621-2.553149C526.146697 222.920092 539.871279 223.793996 553.344129 225.474264zM246.481206 358.037443c16.255219-22.248723 35.217083-42.393529 56.428174-59.914578l-81.426521-81.453127c-16.071024-16.071024-42.090631-16.071024-58.162678 0-16.050558 16.072047-16.050558 42.110073 0 58.180074L246.481206 358.037443zM777.960863 358.035396l83.156932-83.184561c16.053628-16.070001 16.053628-42.108027 0-58.180074-16.068977-16.071024-42.110073-16.071024-58.142212 0l-81.431637 81.45722C742.748896 315.646983 761.708713 335.789743 777.960863 358.035396zM964.513676 524.57541l-124.495432 0c0.744967 9.030677 1.140986 18.156522 1.140986 27.379581 0 18.698874-1.582031 37.023218-4.577249 54.870702l127.929648 0c22.713304 0 41.126676-18.414395 41.126676-41.144072S987.225957 524.57541 964.513676 524.57541zM786.234293 841.889359 257.958608 841.889359c-23.029506 0-41.701774 17.746176-41.701774 39.581484 0 21.874193 18.673292 39.618323 41.701774 39.618323l528.275685 0c23.045879 0 41.699728-17.743106 41.699728-39.618323C827.934021 859.636558 809.280172 841.889359 786.234293 841.889359zM905.776923 684.124196 118.681518 684.124196c-22.50762 0-40.715307 17.745153-40.715307 39.620369 0 21.836331 18.207687 39.577391 40.715307 39.577391l787.095405 0c22.487154 0 40.712237-17.74106 40.712237-39.577391C946.490184 701.869349 928.2651 684.124196 905.776923 684.124196zM183.279768 551.954991c0-9.223059 0.397043-18.348903 1.14201-27.379581L59.924299 524.57541c-22.692838 0-41.10621 18.376533-41.10621 41.10621s18.414395 41.144072 41.10621 41.144072l127.932718 0C184.8618 588.977185 183.279768 570.653865 183.279768 551.954991zM523.499403 491.756957c-9.648754-0.38067-19.429515 2.917446-26.793226 9.976212l-67.51672 64.541969c-13.987572 13.392008-13.987572 35.078936 0 48.470945 13.986549 13.356193 36.639478 13.356193 50.627051 0l43.686988-41.821501 43.698245 41.821501c13.948687 13.356193 36.642548 13.356193 50.608631 0 13.986549-13.392008 13.986549-35.078936 0-48.470945l-67.499323-64.541969C542.938128 494.673379 533.153274 491.376287 523.499403 491.756957z" p-id="1830" fill="#ffffff"></path></svg>