<?xml version="1.0" standalone="no"?><!DOCTYPE svg PUBLIC "-//W3C//DTD SVG 1.1//EN" "http://www.w3.org/Graphics/SVG/1.1/DTD/svg11.dtd"><svg t="1534689853159" class="icon" style="" viewBox="0 0 1024 1024" version="1.1" xmlns="http://www.w3.org/2000/svg" p-id="6884" xmlns:xlink="http://www.w3.org/1999/xlink" width="32" height="32"><defs><style type="text/css"></style></defs><path d="M473.6 300.8 435.2 300.8l0 256c0 44.8-12.8 76.8-32 102.4-19.2 25.6-51.2 38.4-96 38.4s-76.8-12.8-96-38.4C192 633.6 185.6 601.6 185.6 556.8l0-256L147.2 300.8l0 256c0 51.2 12.8 96 38.4 121.6 25.6 32 64 44.8 121.6 44.8s96-12.8 121.6-44.8c25.6-25.6 38.4-70.4 38.4-121.6l0 0L467.2 300.8z" p-id="6885" fill="#ffffff"></path><path d="M832 300.8 697.6 678.4 697.6 678.4 556.8 300.8 518.4 300.8 672 716.8 716.8 716.8 876.8 300.8Z" p-id="6886" fill="#ffffff"></path><path d="M512 0C230.4 0 0 230.4 0 512c0 281.6 230.4 512 512 512 281.6 0 512-230.4 512-512C1024 230.4 793.6 0 512 0zM512 985.6c-262.4 0-473.6-211.2-473.6-473.6 0-262.4 211.2-473.6 473.6-473.6 262.4 0 473.6 211.2 473.6 473.6C985.6 774.4 774.4 985.6 512 985.6z" p-id="6887" fill="#ffffff"></path></svg>