<?xml version="1.0" standalone="no"?><!DOCTYPE svg PUBLIC "-//W3C//DTD SVG 1.1//EN" "http://www.w3.org/Graphics/SVG/1.1/DTD/svg11.dtd"><svg t="1534594385983" class="icon" style="" viewBox="0 0 1024 1024" version="1.1" xmlns="http://www.w3.org/2000/svg" p-id="4939" xmlns:xlink="http://www.w3.org/1999/xlink" width="32" height="32"><defs><style type="text/css"></style></defs><path d="M325.390818 781.796407a254.671457 254.671457 0 0 0 187.222356 79.712575 255.489022 255.489022 0 0 0 188.03992-79.712575z" p-id="4940" fill="#ffffff"></path><path d="M922.621956 600.91018c0-308.221956-408.782435-600.91018-408.782435-600.91018S137.350898 275.31497 105.057086 578.222754A377.306188 377.306188 0 0 0 100.560479 633.612774c0 215.223952 182.316966 390.387226 407.147305 390.387226s414.914172-175.163273 414.914172-390.387226a183.952096 183.952096 0 0 0 0-32.702594z m-405.307784 327.025948C345.82994 927.936128 202.756088 795.081836 202.756088 631.16008a286.147705 286.147705 0 0 1 3.270259-40.878244C229.735729 360.546108 515.474651 109.962475 515.474651 109.962475s309.857086 263.664671 309.857086 497.488224c0 7.971257 1.226347 15.942515 1.226347 24.118163-0.408782 162.695409-138.781637 295.549701-309.243912 295.549701z" p-id="4941" fill="#ffffff"></path></svg>