<?xml version="1.0" standalone="no"?><!DOCTYPE svg PUBLIC "-//W3C//DTD SVG 1.1//EN" "http://www.w3.org/Graphics/SVG/1.1/DTD/svg11.dtd"><svg t="1534594456432" class="icon" style="" viewBox="0 0 1024 1024" version="1.1" xmlns="http://www.w3.org/2000/svg" p-id="7359" xmlns:xlink="http://www.w3.org/1999/xlink" width="32" height="32"><defs><style type="text/css"></style></defs><path d="M873.984 343.38816c-13.94688-24.576-45.19936-33.19808-69.79584-19.27168l-103.7312 58.83904c-57.09824-111.22688-124.2112-216.94464-145.46944-249.7536-9.44128-14.58176-25.62048-23.38816-42.98752-23.38816s-33.54624 8.8064-42.98752 23.38816c-39.23968 60.57984-234.92608 369.58208-234.92608 503.13216 0 3.66592 0.24576 7.24992 0.4096 10.87488l-116.40832 66.02752c-24.59648 13.96736-33.23904 45.19936-19.27168 69.79584 9.4208 16.62976 26.74688 25.94816 44.58496 25.94816 8.56064 0 17.22368-2.12992 25.21088-6.656l686.08-389.12C879.3088 399.21664 887.93088 367.98464 873.984 343.38816zM512 257.51552c33.11616 54.62016 68.608 116.92032 98.97984 176.14848l-263.70048 149.58592C374.29248 498.688 447.73376 363.49952 512 257.51552zM766.79168 531.6608c14.25408 40.05888 23.10144 76.34944 23.10144 104.6528 0 153.21088-124.66176 277.87264-277.89312 277.87264-90.97216 0-171.6224-44.1344-222.35136-111.9232l90.03008-51.05664c32.19456 37.02784 79.52384 60.57984 132.32128 60.57984 96.768 0 175.49312-78.72512 175.49312-175.47264 0-13.66016-4.03456-32.03072-10.91584-53.49376L766.79168 531.6608z" p-id="7360" fill="#ffffff"></path></svg>